<svg width="24" height="24" viewBox="0 0 24 24" fill="none" xmlns="http://www.w3.org/2000/svg">
<path d="M19.1844 3.6192C19.1562 3.44999 19.092 3.2888 18.9963 3.14648C18.9005 3.00416 18.7753 2.88403 18.6292 2.79419C18.483 2.70435 18.3193 2.64688 18.1491 2.62567C17.9789 2.60445 17.8061 2.61998 17.6424 2.6712L9.24238 5.2956C8.99813 5.37185 8.78465 5.52418 8.6331 5.73035C8.48155 5.93651 8.39987 6.18573 8.39998 6.4416V16.2C7.85933 15.7945 7.19761 15.5835 6.52203 15.601C5.84645 15.6186 5.19659 15.8637 4.67774 16.2967C4.15888 16.7298 3.80144 17.3253 3.66331 17.9868C3.52518 18.6484 3.61447 19.3372 3.9167 19.9416C4.21893 20.5461 4.7164 21.0308 5.32851 21.3172C5.94062 21.6037 6.63151 21.675 7.28924 21.5197C7.94697 21.3645 8.53301 20.9917 8.9524 20.4618C9.3718 19.9318 9.59998 19.2758 9.59998 18.6V10.0416L18 7.416V10.8276C18.4116 10.8636 18.8136 10.9392 19.2 11.0484V3.816C19.2 3.7488 19.194 3.684 19.1844 3.6192ZM22.8 17.4C22.8 18.8322 22.2311 20.2057 21.2184 21.2184C20.2057 22.2311 18.8321 22.8 17.4 22.8C15.9678 22.8 14.5943 22.2311 13.5816 21.2184C12.5689 20.2057 12 18.8322 12 17.4C12 15.9678 12.5689 14.5943 13.5816 13.5816C14.5943 12.5689 15.9678 12 17.4 12C18.8321 12 20.2057 12.5689 21.2184 13.5816C22.2311 14.5943 22.8 15.9678 22.8 17.4ZM20.0844 16.878L16.4916 14.898C16.4003 14.8475 16.2974 14.8217 16.1931 14.8231C16.0887 14.8245 15.9866 14.8531 15.8967 14.906C15.8068 14.959 15.7323 15.0345 15.6804 15.125C15.6286 15.2156 15.6013 15.3181 15.6012 15.4224V19.3824C15.6011 19.4868 15.6282 19.5895 15.68 19.6802C15.7317 19.7709 15.8062 19.8466 15.8962 19.8997C15.9861 19.9527 16.0883 19.9814 16.1928 19.9829C16.2972 19.9844 16.4002 19.9585 16.4916 19.908L20.0844 17.928C20.1782 17.8761 20.2563 17.8001 20.3108 17.7077C20.3652 17.6154 20.3939 17.5102 20.3939 17.403C20.3939 17.2958 20.3652 17.1906 20.3108 17.0983C20.2563 17.0059 20.1782 16.9299 20.0844 16.878Z" fill="#BABABA"/>
</svg>
